<svg width="24" height="24" viewBox="0 0 24 24" fill="none" xmlns="http://www.w3.org/2000/svg">
<g clip-path="url(#clip0_81_250)">
<path d="M14.1498 13.6918H13.3819L13.1098 13.4294C14.0623 12.3213 14.6358 10.8828 14.6358 9.3179C14.6358 5.82847 11.8073 3 8.3179 3C4.82847 3 2 5.82847 2 9.3179C2 12.8073 4.82847 15.6358 8.3179 15.6358C9.88279 15.6358 11.3213 15.0623 12.4294 14.1098L12.6918 14.3819V15.1498L17.5517 20L19 18.5517L14.1498 13.6918ZM8.3179 13.6918C5.89766 13.6918 3.94397 11.7381 3.94397 9.3179C3.94397 6.89766 5.89766 4.94397 8.3179 4.94397C10.7381 4.94397 12.6918 6.89766 12.6918 9.3179C12.6918 11.7381 10.7381 13.6918 8.3179 13.6918Z" fill="#222222"/>
</g>
<defs>
<clipPath id="clip0_81_250">
<rect width="24" height="24" fill="white"/>
</clipPath>
</defs>
</svg>
