<svg width="28" height="25" viewBox="0 0 28 25" fill="none" xmlns="http://www.w3.org/2000/svg">
<path d="M26.7273 8.88364H20.6309L15.0564 0.534546C14.8145 0.178182 14.4073 0 14 0C13.5927 0 13.1855 0.178182 12.9436 0.547273L7.36909 8.88364H1.27273C0.572727 8.88364 0 9.45637 0 10.1564C0 10.2709 0.0127272 10.3855 0.050909 10.5L3.28364 22.2982C3.57636 23.3673 4.55636 24.1564 5.72727 24.1564H22.2727C23.4436 24.1564 24.4236 23.3673 24.7291 22.2982L27.9618 10.5L28 10.1564C28 9.45637 27.4273 8.88364 26.7273 8.88364ZM14 3.53818L17.5636 8.88364H10.4364L14 3.53818ZM22.2727 21.6109L5.74 21.6236L2.94 11.4291H25.0727L22.2727 21.6109ZM14 13.9745C12.6 13.9745 11.4545 15.12 11.4545 16.52C11.4545 17.92 12.6 19.0655 14 19.0655C15.4 19.0655 16.5455 17.92 16.5455 16.52C16.5455 15.12 15.4 13.9745 14 13.9745Z" fill="#BDBDBD"/>
</svg>
