<svg width="28" height="25" viewBox="0 0 28 25" fill="none" xmlns="http://www.w3.org/2000/svg">
<path d="M19.4204 1C18.2081 1 17.0494 1.26726 15.9767 1.79442C15.2464 2.15319 14.5756 2.62988 14 3.19544C13.4244 2.62988 12.7536 2.15319 12.0233 1.79442C10.9505 1.26726 9.79186 1 8.57956 1C4.40021 1 1 4.27001 1 8.28939C1 11.1362 2.56338 14.1598 5.64666 17.2762C8.22103 19.8783 11.3729 22.0473 13.5636 23.4088L14 23.68L14.4364 23.4088C16.6271 22.0474 19.779 19.8783 22.3534 17.2762C25.4367 14.1598 27 11.1362 27 8.28939C27 4.27001 23.5998 1 19.4204 1ZM21.1883 16.2101C18.8875 18.5355 16.085 20.5125 14 21.8356C11.915 20.5124 9.11248 18.5355 6.81178 16.2101C4.02249 13.3909 2.60825 10.726 2.60825 8.28939C2.60825 5.12285 5.287 2.54667 8.57962 2.54667C10.4753 2.54667 12.2166 3.38408 13.3571 4.84414L14 5.66722L14.6429 4.84414C15.7834 3.38408 17.5247 2.54667 19.4204 2.54667C22.713 2.54667 25.3918 5.12285 25.3918 8.28939C25.3918 10.726 23.9775 13.3909 21.1883 16.2101Z" fill="#BDBDBD" stroke="#BDBDBD"/>
</svg>
