<svg width="24" height="24" viewBox="0 0 24 24" fill="none" xmlns="http://www.w3.org/2000/svg">
<path d="M8.35507 0.643626C5.46851 1.65782 2.97202 3.84225 1.56775 6.57278C1.09966 7.50897 0.70958 8.52316 0.553549 9.61538C0.00744275 12.1899 0.397519 14.9984 1.56775 17.3389C2.3479 18.8992 3.44011 20.2254 4.84439 21.3177C6.09263 22.3319 7.57492 23.112 9.21324 23.5021C11.2416 24.0482 13.348 24.0482 15.2984 23.5801C17.0928 23.19 18.8091 22.3319 20.2134 21.0056C21.6957 19.6793 22.7099 17.963 23.256 16.0126C23.8801 13.9842 23.9581 11.7998 23.568 9.69339C19.8233 9.69339 16.0786 9.69339 12.3338 9.69339C12.3338 11.2537 12.3338 12.814 12.3338 14.3743C14.5183 14.3743 16.7027 14.3743 18.8091 14.3743C18.5751 15.8566 17.6389 17.2609 16.3906 18.041C15.6105 18.5871 14.6743 18.8992 13.7381 19.0552C12.8019 19.2113 11.7877 19.2113 10.8516 19.0552C9.91538 18.8992 8.97919 18.4311 8.19904 17.885C6.9508 17.0268 5.9366 15.7006 5.46851 14.2183C4.9224 12.736 4.9224 11.0977 5.46851 9.53736C5.85859 8.52316 6.40469 7.50897 7.18484 6.72881C8.12103 5.71462 9.36927 5.01248 10.7735 4.77843C11.9438 4.54439 13.114 4.54439 14.2842 4.93446C15.2204 5.24652 16.1566 5.79263 16.8587 6.41675C17.5609 5.71462 18.341 4.93446 19.0432 4.23233C19.4332 3.84225 19.8233 3.45217 20.2134 3.0621C19.1212 2.0479 17.7949 1.18973 16.3906 0.643626C13.8161 -0.214542 10.9296 -0.214542 8.35507 0.643626Z" fill="white"/>
<path d="M8.35507 0.643713C10.9296 -0.214454 13.8161 -0.214454 16.3906 0.721729C17.7949 1.26784 19.1212 2.04799 20.2134 3.1402C19.8233 3.53028 19.4332 3.92035 19.0432 4.31043C18.341 5.01257 17.5609 5.79272 16.8587 6.49486C16.1566 5.79272 15.2204 5.24661 14.2842 5.01257C13.192 4.70051 11.9438 4.62249 10.7735 4.85654C9.44728 5.1686 8.19904 5.87073 7.18484 6.80692C6.40469 7.58707 5.78056 8.60127 5.4685 9.61547C4.14224 8.60127 2.894 7.58707 1.56774 6.57287C2.97202 3.84234 5.4685 1.65791 8.35507 0.643713Z" fill="#EA4335"/>
<path d="M0.553549 9.61535C0.787595 8.60115 1.09966 7.58695 1.56775 6.57275C2.89401 7.58695 4.14225 8.60115 5.46851 9.61535C4.9224 11.0976 4.9224 12.736 5.46851 14.2963C4.14225 15.3105 2.89401 16.3247 1.56775 17.3389C0.397519 14.9204 0.00744272 12.1899 0.553549 9.61535Z" fill="#FBBC05"/>
<path d="M12.2558 9.69336C16.0006 9.69336 19.7453 9.69336 23.49 9.69336C23.8801 11.7998 23.8021 13.9842 23.178 16.0126C22.6319 17.885 21.6177 19.6013 20.1354 21.0056C18.8871 19.9914 17.6389 19.0552 16.3126 18.041C17.5609 17.1828 18.419 15.8566 18.7311 14.3743C16.5467 14.3743 14.3623 14.3743 12.2558 14.3743C12.2558 12.814 12.2558 11.2537 12.2558 9.69336Z" fill="#4285F4"/>
<path d="M1.56774 17.339C2.894 16.3248 4.14224 15.3106 5.4685 14.2964C5.93659 15.7787 6.95079 17.1049 8.19904 17.9631C8.97919 18.5092 9.91537 18.8993 10.8516 19.1333C11.7877 19.2894 12.7239 19.2894 13.7381 19.1333C14.6743 18.9773 15.6105 18.5872 16.3906 18.1191C17.6389 19.1333 18.8871 20.0695 20.2134 21.0837C18.8091 22.332 17.1708 23.1901 15.2984 23.6582C13.27 24.1263 11.1636 24.1263 9.21323 23.5802C7.65293 23.1901 6.17064 22.41 4.84438 21.3958C3.51812 20.2255 2.34789 18.8213 1.56774 17.339Z" fill="#34A853"/>
</svg>
